/* XPM */
static char *door[] = {
/* columns rows colors chars-per-pixel */
"64 64 256 2 ",
"   c #1B1905",
".  c #252A17",
"X  c #313013",
"o  c #023939",
"O  c #183738",
"+  c #0E332B",
"@  c #303731",
"#  c #1D2613",
"$  c #184D0B",
"%  c #2B5407",
"&  c #05443A",
"*  c #124A35",
"=  c #33443C",
"-  c #246C31",
";  c #515438",
":  c #6A633E",
">  c #44401A",
",  c #023B45",
"<  c #153C43",
"1  c #3C3D41",
"2  c #064748",
"3  c #174748",
"4  c #084A53",
"5  c #154D56",
"6  c #075654",
"7  c #15565A",
"8  c #10554B",
"9  c #2C554F",
"0  c #00635B",
"q  c #19665C",
"w  c #087654",
"e  c #2C695C",
"r  c #025A66",
"t  c #175A63",
"y  c #00536B",
"u  c #305D62",
"i  c #016464",
"p  c #00646C",
"a  c #016A6C",
"s  c #0C6B68",
"d  c #156B6C",
"f  c #186867",
"g  c #08766B",
"h  c #18756B",
"j  c #006671",
"k  c #016C74",
"l  c #016D79",
"z  c #0B6D73",
"x  c #1B6B72",
"c  c #027375",
"v  c #027A74",
"b  c #03747B",
"n  c #027A7C",
"m  c #0C7C7C",
"M  c #0B7676",
"N  c #177876",
"B  c #236C6B",
"V  c #276768",
"C  c #326A69",
"Z  c #27756C",
"A  c #2A6E75",
"S  c #257778",
"D  c #347474",
"F  c #347071",
"G  c #4C5549",
"H  c #576457",
"J  c #516051",
"K  c #696E53",
"L  c #587573",
"P  c #47716C",
"I  c #677870",
"U  c #79881A",
"Y  c #668832",
"T  c #06837B",
"R  c #18857B",
"E  c #16886D",
"W  c #23847B",
"Q  c #338C79",
"!  c #368854",
"~  c #588C72",
"^  c #688476",
"/  c #55A069",
"(  c #898F73",
")  c #94AC72",
"_  c #93C674",
"`  c #ABCF6F",
"'  c #047B83",
"]  c #0A7C82",
"[  c #077784",
"{  c #167C81",
"}  c #056B82",
"|  c #2A7B82",
" . c #517E81",
".. c #038584",
"X. c #0B8483",
"o. c #028A85",
"O. c #0A8A86",
"+. c #04878B",
"@. c #0A858B",
"#. c #028B8B",
"$. c #0A8B8C",
"%. c #148283",
"&. c #148A8C",
"*. c #1C8D8C",
"=. c #178587",
"-. c #02928D",
";. c #08948B",
":. c #15918B",
">. c #028D92",
",. c #0B8D92",
"<. c #0C8495",
"1. c #198C96",
"2. c #029394",
"3. c #0C9393",
"4. c #029A94",
"5. c #0B9A95",
"6. c #02959A",
"7. c #09959B",
"8. c #039B9B",
"9. c #0B9B9C",
"0. c #149493",
"q. c #1B9493",
"w. c #1B9D9C",
"e. c #179897",
"r. c #278A87",
"t. c #348888",
"y. c #29938B",
"u. c #288C93",
"i. c #378C93",
"p. c #279898",
"a. c #359A98",
"s. c #35968F",
"d. c #03A29D",
"f. c #08A49B",
"g. c #17A59C",
"h. c #23A29B",
"j. c #33A39C",
"k. c #37AA98",
"l. c #39A48E",
"z. c #039DA2",
"x. c #099BA4",
"c. c #1599A4",
"v. c #2A98A5",
"b. c #3A9DA3",
"n. c #2F9DB2",
"m. c #03A3A3",
"M. c #0BA3A4",
"N. c #04A9A5",
"B. c #0BA4AA",
"V. c #0CABAB",
"C. c #06A8A8",
"Z. c #14ABAC",
"A. c #1CACAD",
"S. c #16A6A6",
"D. c #1BB2AA",
"F. c #14ADB2",
"G. c #1CACB2",
"H. c #19A8B5",
"J. c #15B3B3",
"K. c #1CB3B4",
"L. c #1DB4BA",
"P. c #1AB9BA",
"I. c #0CB0B2",
"U. c #24AAA5",
"Y. c #2BAAA3",
"T. c #24ABAC",
"R. c #28A7A6",
"E. c #34A3A4",
"W. c #3CA4A3",
"Q. c #3DA4AB",
"!. c #34ACAA",
"~. c #38A9A6",
"^. c #28B4AC",
"/. c #36B4AB",
"(. c #23ADB4",
"). c #2BA9B3",
"_. c #38AAB5",
"`. c #23B3B4",
"'. c #2BB4B4",
"]. c #23B5BA",
"[. c #2CB4BA",
"{. c #23BABB",
"}. c #2CBBBC",
"|. c #29BBB2",
" X c #33BBBC",
".X c #37B6B5",
"XX c #46999A",
"oX c #4D9091",
"OX c #67908B",
"+X c #4FAD96",
"@X c #6BB790",
"#X c #499DA5",
"$X c #529AA2",
"%X c #45A7A8",
"&X c #54A5A7",
"*X c #46B5A9",
"=X c #46AAB8",
"-X c #48B5B5",
";X c #54B8B7",
":X c #54B5AF",
">X c #6EB2B4",
",X c #38C3BA",
"<X c #28C1B4",
"1X c #6FC696",
"2X c #47C5BB",
"3X c #54C4BE",
"4X c #74C6B3",
"5X c #16B8C1",
"6X c #2ABCC2",
"7X c #34BCC3",
"8X c #38B9C6",
"9X c #37AAC0",
"0X c #47B9C5",
"qX c #4BB3C7",
"wX c #2BC2C5",
"eX c #34C3C3",
"rX c #3BC4C3",
"tX c #3BC7C9",
"yX c #3CC4D1",
"uX c #1CC2C2",
"iX c #46C8C7",
"pX c #59C6C8",
"aX c #5BD4CB",
"sX c #5AD7D6",
"dX c #4DCED1",
"fX c #65C9C8",
"gX c #67CDD2",
"hX c #66D8D9",
"jX c #6DD4CC",
"kX c #50E4D5",
"lX c #66E2DD",
"zX c #5ED3E1",
"xX c #6FDAE9",
"cX c #7CE6E5",
"vX c #6AF2E9",
"bX c #75F5ED",
"nX c #75F6F2",
"mX c #B1AE8D",
"MX c #84BDBA",
"NX c #A0BAAD",
"BX c #86CCB5",
"VX c #9EE3A9",
"CX c #D2E1A0",
"ZX c #82BDC3",
"AX c #92D5CE",
"SX c #AEEEDB",
"DX c #8BFDFE",
"FX c #88FAF9",
"GX c #94FDFD",
"HX c #9AFEFE",
"JX c #93F6F8",
"KX c #8EEFEB",
"LX c #ADECEC",
"PX c #A7E4DB",
"IX c #C1FFC1",
"UX c #C5BC95",
/* pixels */
"+ 9 3 3 & 3 3 3 3 2 8 3 < < 3 3 3 3 3 3 < 3 3 3 3 3 3 3 3 < 3 < 3 < 8 5 3 3 3 < 3 3 5 < < 3 3 5 3 * 3 3 & 3 3 3 & 2 2 8 * * = O ",
"< C C q q B D D Z q q q V f B F Z h B B f f h Z h f q Z Z B B Z A A B B C V A A V V u V V t V C C V q h f q e Z Z q q Z q C e 3 ",
"& oXt.E W g q t.s.R E r.r.Z h W s.W R r.R g g R r.E E =.r.g s r.y.r.g N W N z r.y.W W i.r.g f W y.S N r.y.N d y.y.R R =.E W e 2 ",
"6 &Xk./.h.g 0 m j.!.!.~.j.M i N /.j.j.!.h.g w T !.!.j.k.j.c 6 M p.-X-XfX~.m 6 %.-X;X-X!.Q.M 0 =.Q.Q.j.!.p.b p { E.0...@.*.r.g 6 ",
"6 %Xj.!./.y.c m ~.!.!.~.a.m M r.Q.Q.Q.%Xb.R M =.j.%X%X!.%Xr.z r.~.3XgXcX!.m i *.-XpX-XE.b.{ c *.b.=X_._.b.@.b =.1.1.1.w.{ r.d 4 ",
"2 &X%X!.p.%.a k k c k k b k r j a p a k c p i a p g a p k p r j p i a c a a a k j l k j j j p j j l j k l k j k l j b u.@.u.d 4 ",
"t %Xu.E.!._.] m ' ' ' ' [ [ [ b v [ b b v v b v ' ' v c c b b c c b b a l b b l b l b [ [ ' [ } [ b l k c v ] k j k &.&.p.M d t ",
"4 N Q.FX/.hX_.&.3.2.7.7.+.+.,.>.#.#.2.2.>.>.>.#.-.#.,.,.+...+.@.T $.$.$.@.$.@.e.,.+.+.,.,.>.+.,.,.$.$.:...O.$.@.c p %.O.bXs.s 2 ",
"4 N a &..XnXsXw.9.9.m.M.8.x.M.f.9.9.9.9.0.7.M.R.T.U.T.R.'.[..X.X.XrX XiX^.}..X X[.[.`.`.(.G.S.S.f.g.5.e.5.;.;.O.g a v g O.E g 6 ",
"4 S g v !.FXsX3.9.9.f.m.M.M.B.M.9.f.M.S.9.S.A.A.`.[.[.^.'.(./.w.rXU.,X[.tX,XeX}.{.`.`.}.].P.G.Z.f.f.5.5.5.;.5.#.c i T @.g g W 2 ",
"4 i.i.-X!.DXsXw.S.f.m.B.M.B.M.M.f.m.M.V.^.D.G.^.D.`.}.}.'..X^.kXT.dX.XrX X[.[.`.(.D.D.G.Z.S.M.z.f.M.9.e.5.4.3.$.' p @.1.!.R x 5 ",
"5 &Xa.p./.DXpXw.S.M.f.M.z.m.m.m.f.B.V.D.P.P.K.K.`.}.{.`.eX`.tXM.dXU.rX}.iXeX`.^.{.{.{.`.F.Z.B.m.m.M.9.9.2.4.2.+.l k p.p.*.m d 5 ",
", $X;X!._.FXsXg.M.f.m.m.m.m.I.V.Z.K.K.P.{.P.K.6XwX}.,X{. XtX^.dXS.dX`.}.`.`.K.K.K.K.D.V.V.C.m.C.m.m.x.7.7.2.2.>.[ j *.w./.u.W 2 ",
"t XXa.!.g.FXsX9.8.m.N.m.m.F.P.P.K.P.K.K.K.].{.6X6XyX XrX7X XiX'.tX{.eXeXK.{.Z.{.P.J.I.V.C.N.C.C.m.z.7.7.2.2.2.>.[ r w.e.T.v z t ",
"7 &Xa.!./.DXsXw.9.M.V.F.H.P.5X{.P.].G.P.(.].6X6X7X6X7XrX(.7X[.iX<XeX`.D.{.K.6XK.D.F.V.N.m.m.m.m.z.z.7.,.2.-.2.,.l j E.^.U.R s 2 ",
"2 S a.FX!.FXsXR.S.M.F.].P.(.G.P.].P.P.6X].6X8X6X8X6X7X7X7X.XrX[.tX[.[.`.T.`.{.`.G.Z.B.m.m.m.m.z.8.8.,.1.#.#.#.#.b r *.O.nXh.s 5 ",
"4 x p *.T.nXlX(.^.D.Z.].'.6X5X6XH.8X[..X.X,X.XdX9X8X7X7X X7X6XyX[.[.A.`.K.`.P.P.V.V.m.f.m.f.8.8.8.2.,.@.$.#.#.@.{ r { b q.c d 6 ",
", | z v R.FXsX!.}.`.{.[.7X).6XH.8X(. X,X,X.X0X).dX6X8X.X,X}.7XH.}.S.<XA.{.P.J.F.V.m.m.m.z.m.8.4.4.3.1.@.o.#.#.@.l p @.v T R S 4 ",
"4 i.i.-X/.FXsX_.U.`.G.].).7XH.wX5X7X[.yX}.8X8XyX(.iX[.,X XeXA.yXA.7Xf.6XP.K.V.m.m.m.m.M.m.8.8.4.2.2.+.@.#.#.#.@.[ p p.q.-XT f 7 ",
"5 &Xa.p.!.DXgXE._.[.(.].G.S.}.`.8X6X8X7X7X.X8X[.iX X,X XeX[.}.S.{.M.wXK.K.J.V.z.m.m.m.m.m.8.8.4.2.>.,.@.$.o.#.@.k r p.!.h.N z 8 ",
"& $X:X*X~.GXhXQ.)..X6X(.}.<XD.,X}.<XyX8X8X7X7XeXY.,X<X,X,X X`.[.K.wXZ.K.K.I.z.m.m.m.m.m.8.8.7.7.2.2.$.@.+.#.o.$.l k v.^.h.y.N 4 ",
"6 +Xs.%Xs.HXjX_.9X[.T.[.wX,X,X^.<X}.6X6X8XyX X[.,X,X|.<XeX6X(.H.{.K.P.J.I.m.V.m.m.m.z.z.8.8.2.8.2.2.,.@.#.#.#.+.l k E.E./.R d 5 ",
"8 &Xs.~.%XHXgX_.c.7X6XeX`.,X/.aX^.,X6X8X8XiX[.2X<X<XtX<X{.G.6X].P.P.J.N.I.C.m.m.m.m.z.8.7.2.2.2.>.2.$.@.#.-.#.@.l k ~.E.!.m g 7 ",
"2 S XXFXs.DXhX_.7X[.tX{.dX`.,Xj.dX.XyX9XqX9XdX^./.<X^.K.].].G.G.P.J.V.V.C.C.m.m.z.z.z.8.8.2.2.2.#.#.@.+.#.;.-.$.b r q.&.vXQ.f 4 ",
"2 x i r.j.FXsXyXS.dXS.,X}.iX/.3X/.k.-XdXqX=XqX_./.,X<XeXH.6XH.6XJ.I.C.N.N.m.m.m.8.8.7.8.2.2.>.2.-.>.$.$.$.-.2.$.b p @.v 0.m f 4 ",
"2 N l ] -XGXsXG.yXR.dXY.,X X~.:X*X*X:XqXqX=X;X%X2XY.|.K.F.6X6XG.I.V.C.m.m.m.m.z.7.8.2.2.2.2.2.>.2.#.@.$.-.-.4.$.c r 1.v O.m N V ",
"5 | v.qX!.FXsXtXD.kXk.2X,X.X;X4X:X>XXX>X$X>Xa.4X~.E.^.`.6XP.P.K.I.N.N.m.m.m.m.z.8.7.2.2.2.#.>.>.#.#.$.$.#.-.4.$.v j w.p.h.u.A , ",
"4 #X_.v.!.FXdX,X2X/ +X+Xk.!.;X>XPXLXLXLXLXLXPXPXKXj.iXc.G.P.].V.B.f.N.f.8.m.z.z.7.2.2.2.>.#.#.#.2.#.$.O.#.5.4.$.b k v.w.O.b d 2 ",
"2 &XqX9X=XFXaX,Xk.1X/ 1X/.jXs.$XF P L OXOXL MX>XfX%X/.[.K.J.V.I.m.m.m.8.m.f.8.8.7.2.2.2.#.+.+.#.#.#.$.$.#.;.4.#.b j p.S.e.y.S , ",
"6 #Xn._._.KXaX2X+X1XVXVX+X*Xh o L O NXI ^ H PXOXLXa._.T.`.K.V.f.f.z.f.m.8.8.7.7.7.2.#.#.#.#.....-.#.,.$.-.4.4.o.v k q.:.O.m d 4 ",
"8 :Xn._.-XKXjX1X! - Y IX/ y.E & L J K K K ^ ^ NXAX#XE.!.S.B.f.N.m.m.m.8.8.8.8.7.2.2.>.#.#...o.#.-.#.$.$.-.5.4.#.[ k &.@.o.m d 4 ",
"& N 1.GXj.JX3XE * - Y VX1XQ w +  .I H K ( K ^ ^ >X#X=X[.D.D.N.f.m.f.f.8.8.2.8.2.2.2.#.#.#...o.$.#.#.#.$.#.4.4.#.' p @.#.!.~.S 5 ",
", oXt M =XGX*Xw / % U ` @XS A + I K : : : : K I AXk.U.M.C.B.H.c.m.8.8.4.2.2.2.-.-.#.o.#.#...+.#.>.>.$.#.-.4.5.@.b p ] ....T d 4 ",
", Z 6 =.pXcXp.E VX% U ` 1XA A + G G ( ( UXCXmXI >Xp.!.Z.I.B.x.x.m.8.8.8.4.2.2.-.#.#.#.o.#.+.+.>.#.>.;.#.-.4.5.@.k p ] v T m f 4 ",
"o D a.jXfXgXa.N VX$ U _ @Xh Z O 1 X G     mXJ L MX%XT.8.C.C.x.B.z.8.8.2.2.2.-.#.#.o.#.o...+.#.#.#.3.,.#.4.4.5.+.b p ] v 0.*.A 5 ",
"3 MX4X:XcX;XN d BX$ U ` 1XE q $ @ . K     mXK L MXa.S.z.m.z.z.B.z.8.8.2.2.-.#.#.#.o.....#.o.#.#.>.#.3.2.4.4.5.@.b p @.@.O.m d , ",
"* 4XjXKXJX#X{ N BX$ U _ 1XE h & @ # ;   > mXK P MXy.9.x.N.m.m.z.z.z.7.2.2.-.-.#.#.o.o.#.o.#.#.#.2.>.3.3.8.4.5.+.b r ] &.0.*.S 5 ",
"3 BXAXKXHXa.a.N 1X$ Y _ / W ! + @ . ; ; K K K J AXi.e.5.m.m.m.z.z.8.7.7.-.2.#.#.o.o.o.o.#.o.#.#.2.2.2.3.f.4.5.@.[ p ] $.e.R f 4 ",
"5 PXPXGXGX%XW E 1X$ Y / 1XW d + @ . X X . X H L >Xu.p.f.f.z.z.z.8.7.7.>.2.#.#.o.o.o.o.o.#.o.#.#.2.#.2.2.4.4.4.#.k p @.$.!.R f 5 ",
"3 MX&XcXGX-XR E *X- ! / +XN A O @ # X X > @ H J >Xs.v.4.m.z.z.z.7.7.2.2.#.#.#.o.#.o.o.#.#.o.#.-.2.2.2.2.8.4.4.$.b p ] ..lXQ.f 4 ",
"3 oXD qXGXE.T R E w - ! l.R A < 1 @ G 1 ; G L L >X| n.c.8.8.z.7.7.6.>.+.#.>.#.o.#.o.o.#.#.#.#.#.2.2.7.2.8.4.9.#.b r v @...c f 5 ",
"O >Xt.pXGX=X:.T T w ! Q l.E V o @ @ H J G G  .P >Xu.v.7.8.8.z.7.6.6.6.>.#.#.#.o...#.o.#.#.-.-.-.2.7.2.4.8.4.9.$.[ r ] $.T c S 5 ",
"3 AXZXHXFXn.9.o.T -.l.2X2X*.| o < < u u P P  .F $Xu.w.5.8.8.8.7.7.>.>.+.#.#.+.#.o.o.#.#.#.#.#.2.2.7.7.2.8.4.8.@.k j ] $.Y.=.S 5 ",
"- SXPXGXxXn.e.#.f.S./.k.k.v z 2 , , < + o , , , u.*.w.9.4.4.7.7.>.>.>.>.#.#.o.o.o.o.-.#.-.#.>.>.7.2.8.4.8.f.9.+.[ p &.0.:.M f 4 ",
"* SXPXKXxX9X<.H.J.5X}.S.^.#.@.N d W g E N E z z *.1.c.4.4.2.6.7.>.>.#.#.#.#.#...#.#.#.-.#.2.>.2.7.2.8.7.f.8.8.#.[ j @.R.S.*.W 7 ",
"& PXAXgXzX8X[ 9XC.uXwXP.J.2...&.@.:.T T T R 0.v.c.9.8.4.4.2.>.2.>.>.#.#.#.+.o.#.#.o.#.#.-.>.2.>.7.7.7.4.8.f.8.>.l l *.w./.%.f 4 ",
"* AX>XgXqXxX_.!.uXI.I.P.P.P.F.!.].A.f.g.f.g.9.7.x.9.4.f.4.-.2.>.#.#.#.#.+.#...o.o.#.#.2.>.2.2.2.7.7.7.7.f.8.9.#.l j w.q..Xm f 4 ",
"& ~ | KXzXcX-XT.uXI.5XuXI.5XP.K.B.J.f.f.N.f.4.x.8.4.4.f.4.-.2.>.>.#.#.+.#.o.#...#.#.#.-.2.>.>.2.7.7.7.4.8.f.x.>.b l @.;.vXj.f 4 ",
"* V t | fXKXfXT.^.A.D.K.].F.5XC.H.C.H.B.x.B.z.8.x.7.7.7.4.-.-.#.>.#.#.>.>.+.+.#.>.>.>.2.6.7.7.7.z.z.6.z.m.m.z.<.} j @.+.5.b d 5 ",
"o C | N ;XHXgXR.S.D.D.|.J.P.I.5XH.].z.x.x.6.x.7.2.3.2.2.-.-.o.o.+.#.+.o.+.#.#.$.+.#.>.-.>.2.7.8.7.7.6.z.m.f.8.@.[ y ' T o.E S 5 ",
"5 i.r.pX-XGXhXT.|.K.<X^.D.f.P.m.I.z.V.8.z.x.8.5.;.-.-.-.;.;.-.-...o.o.o.#.o.o.o.#.#.#.#.>.2.2.2.2.8.z.2.f.N.M.,.j z w.9.<X&.f 4 ",
"6 4X=X2X=XDXsX(.K.<XD.g.S.P.m.Z.f.I.8.z.z.m.-.f.4.4.-.-.;.T T T o...O.o.o.o.o.o.o.$.-.#.-.-.2.2.4.8.4.2.f.f.5.@.j j 1.U.g.E f 3 ",
"o >XfXj.Q.GXdX).`.`.S.(.S.M.`.M.I.8.m.m.f.8.m.2.4.4.-.#.-.-.#.#.#.#...+.+.+.#.#.#.#.2.2.>.2.2.2.8.7.8.2.f.f.z.@.l j v.M.Y.*.S 5 ",
"6 &X~.%X=XGXgX'.`.`.(.c.A.F.B.F.z.V.z.m.z.z.m.z.2.-.>.>.#.#.#.+.+.#.>.#.>.+.#.+.2.>.2.2.6.6.z.6.7.7.7.8.m.m.H.1.} } 1.1./.{ x 5 ",
"t +Xy.~.%XJXzX[.Z.F.(.x.P.B.6Xm.H.6.c.z.z.x.7.7.7.2.6.>.#.+.+.+.+.+.>.>.6.>.>.+.6.>.6.7.6.6.z.7.H.6.6.B.m.7.z.<.} } n._.9X{ t t ",
"& Z l.GXp.HXiX[.A.}.S.A.c.{.V.8.x.c.6.6.7.+.>.>.>.>.+.,.>.,.>.,.6.>.+.+.+.+.>.>.,.+.>.7.+.>.x.7.>.8.c.2.7.Z.[.' [ j 1.} nXv.| < ",
"* Z 0 N ;XJXhX.X,X3.h.e.Y.g.g.0.0.;.w.$.#.e.T ;.;.o.o.o.-.;.o.T ' $.O.o.O.o.O.;.-.T ;.;.o.R.-.3.;.f.T <X-.4.g.w.' [ ..v :.a h 4 ",
"& Z s { %XKXgXxX_.hXgXxXjX2X3XbXiXlXaXhXaXsXhXiXpX2X2X.X/.h.h.e.g.p.Y..X2X2XiX,X2XiX2X,XiX.X2XdX<XD.D.f.<X<Xg. XT i g T T E h 8 ",
"r s.u.qXv.JXJXJXDXGXJXJXGXHXHXKXGXKXGXGXHXJXFXFXcXcXKXcXlXfXpX3XiXdXsXvXvXnXnXvXvXbXnXnXbXvXbXvXvXvXbXkXkXkXkX X0.O.U.e.,XR h 2 ",
"y =Xv.n.9X9XqXn..Xw.Q.%X%Xu.s.k.u.r.r.j.m a.r.u.p.=.m m m m c ] v v T $.T ;.:.h.;.:.;.0.e.Y.R.!.g.,X5.<Xg.D./.iXT.&.h.Y.l.=.w 2 ",
"y qX9X9X9X1.[ FX).0X!.%XQ.u.c DX&.-Xv *.*.m @.p.h.*.%.@.m b b v @.] ] @.e.&.@.*.q.q.q.p._.*.1.JXk.-XS././.e.@.hXpX_.!.*Xj.r.Z 6 ",
"4 #X_.b.#X{ { { j.~.-Xb.a.m M =.R m q.q.p.v 0 c %.T T m c j i i d { { r.y.M 0 m =.u.p.u.Q.{ r { a.%X=X~.Q.N z u.a.Q.%XXX&XZ V 8 ",
"u OX$X$XoXD V t.a.+XXX&XXXN d { r.r.W W N N N d S N S x x x d A A | D | | x f t.t.| i.$XXXA A i.$X&XXX&XXXW f t.#X#X$X&Xt.~ C 9 ",
"= G P 9 P 9 9 q Z q f V Z f d x Z q B C Z C V C F C C V V A u u V A A F A V V V B V C C A C 5 u A V f B S 7 t B B f V q D P 9 3 "
};
