/* XPM */
static char *spawn_cross[] = {
/* columns rows colors chars-per-pixel */
"64 64 250 2 ",
"   c None",
".  c #750A0A",
"X  c #760A0A",
"o  c #770A0A",
"O  c #780A0A",
"+  c #790A0A",
"@  c #7A0A0A",
"#  c #7B0A0A",
"$  c #7C0A0A",
"%  c #800B0B",
"&  c #810B0B",
"*  c #820B0B",
"=  c #830B0B",
"-  c #860909",
";  c #870909",
":  c #850B0B",
">  c #870B0B",
",  c #840C0C",
"<  c #860C0C",
"1  c #870C0C",
"2  c #880C0C",
"3  c #890C0C",
"4  c #8A0C0C",
"5  c #8B0C0C",
"6  c #8A0D0D",
"7  c #920D0D",
"8  c #930D0D",
"9  c #960D0D",
"0  c #970D0D",
"q  c #950E0E",
"w  c #960E0E",
"e  c #9B0B0B",
"r  c #9A0C0C",
"t  c #9B0C0C",
"y  c #980E0E",
"u  c #990E0E",
"i  c #9A0E0E",
"p  c #9A0F0F",
"a  c #9D0C0C",
"s  c #9C0D0D",
"d  c #9D0D0D",
"f  c #9E0D0D",
"g  c #9C0E0E",
"h  c #9C0F0F",
"j  c #9D0F0F",
"k  c #A20D0D",
"l  c #A00E0E",
"z  c #A40D0D",
"x  c #A60D0D",
"c  c #A50E0E",
"v  c #A60E0E",
"b  c #A70E0E",
"n  c #A80E0E",
"m  c #A90E0E",
"M  c #AB0E0E",
"N  c #AC0E0E",
"B  c #AD0E0E",
"V  c #AE0F0F",
"C  c #AF0F0F",
"Z  c #B30C0C",
"A  c #B30D0D",
"S  c #B10F0F",
"D  c #B20F0F",
"F  c #B40D0D",
"G  c #B50E0E",
"H  c #B40F0F",
"J  c #B50F0F",
"K  c #B60E0E",
"L  c #B70E0E",
"P  c #B60F0F",
"I  c #B70F0F",
"U  c #B90E0E",
"Y  c #B80F0F",
"T  c #B90F0F",
"R  c #BB0E0E",
"E  c #BA0F0F",
"W  c #BB0F0F",
"Q  c #BC0E0E",
"!  c #BD0E0E",
"~  c #BE0E0E",
"^  c #BF0F0F",
"/  c #B91010",
"(  c #BA1010",
")  c #BB1010",
"_  c #BC1010",
"`  c #BD1010",
"'  c #BC1111",
"]  c #BD1111",
"[  c #BE1010",
"{  c #BF1010",
"}  c #BF1111",
"|  c #B81717",
" . c #C00F0F",
".. c #C10F0F",
"X. c #C30F0F",
"o. c #C40F0F",
"O. c #CD0E0E",
"+. c #C01010",
"@. c #C11010",
"#. c #C01111",
"$. c #C11111",
"%. c #C21010",
"&. c #C31010",
"*. c #C21111",
"=. c #C31111",
"-. c #C41010",
";. c #C51010",
":. c #C41111",
">. c #C51111",
",. c #C61111",
"<. c #C71111",
"1. c #C71212",
"2. c #C81111",
"3. c #C81212",
"4. c #C91212",
"5. c #CA1212",
"6. c #CB1212",
"7. c #CC1212",
"8. c #CD1212",
"9. c #CE1212",
"0. c #CF1212",
"q. c #D01010",
"w. c #D11010",
"e. c #D01111",
"r. c #D11111",
"t. c #D31111",
"y. c #D01212",
"u. c #D11212",
"i. c #D21212",
"p. c #D31212",
"a. c #D41111",
"s. c #D61111",
"d. c #D41212",
"f. c #D51212",
"g. c #D41313",
"h. c #D51313",
"j. c #D61212",
"k. c #D71212",
"l. c #D61313",
"z. c #D71313",
"x. c #D21414",
"c. c #D81212",
"v. c #D91212",
"b. c #D81313",
"n. c #D91313",
"m. c #DA1212",
"M. c #DA1313",
"N. c #DB1313",
"B. c #DC1111",
"V. c #DD1111",
"C. c #DE1111",
"Z. c #DF1111",
"A. c #DC1212",
"S. c #DD1212",
"D. c #DC1313",
"F. c #DE1212",
"G. c #DF1212",
"H. c #DF1313",
"J. c #DA1414",
"K. c #DB1414",
"L. c #DC1414",
"P. c #DD1414",
"I. c #DE1414",
"U. c #DF1414",
"Y. c #D41919",
"T. c #E60E0E",
"R. c #E11111",
"E. c #E01313",
"W. c #E01414",
"Q. c #E11414",
"!. c #E21414",
"~. c #E21515",
"^. c #E31515",
"/. c #E51414",
"(. c #E71414",
"). c #EC1717",
"_. c #E01F1F",
"`. c #EA1919",
"'. c #EB1919",
"]. c #EB1A1A",
"[. c #EB1B1B",
"{. c #EC1919",
"}. c #CC2C2C",
"|. c #CD2C2C",
" X c #CD2D2D",
".X c #CE2D2D",
"XX c #CF2D2D",
"oX c #D02E2E",
"OX c #D12E2E",
"+X c #D22F2F",
"@X c #D32F2F",
"#X c #D43030",
"$X c #D53030",
"%X c #D63030",
"&X c #D63131",
"*X c #DA3131",
"=X c #E02020",
"-X c #E52525",
";X c #E82525",
":X c #EB2626",
">X c #EC2525",
",X c #EC2727",
"<X c #EE2727",
"1X c #EF2727",
"2X c #F12828",
"3X c #F22929",
"4X c #F32929",
"5X c #F42929",
"6X c #F52929",
"7X c #F62929",
"8X c #F42A2A",
"9X c #F52A2A",
"0X c #F52B2B",
"qX c #F72B2B",
"wX c #F92E2E",
"eX c #FA2F2F",
"rX c #FB2F2F",
"tX c #E13535",
"yX c #E23636",
"uX c #E43636",
"iX c #E53636",
"pX c #E53737",
"aX c #E63636",
"sX c #E73636",
"dX c #E63737",
"fX c #E83535",
"gX c #E73838",
"hX c #E73939",
"jX c #E83838",
"kX c #E93939",
"lX c #EA3939",
"zX c #EB3939",
"xX c #EC3838",
"cX c #EC3A3A",
"vX c #FB3030",
"bX c #FC3030",
"nX c #FC3131",
"mX c #FD3131",
"MX c #FC3232",
"NX c #FD3232",
"BX c #FD3333",
"VX c #FE3232",
"CX c #FC3636",
"ZX c #FC3737",
"AX c #FD3737",
"SX c #FD3D3D",
"DX c #FE3F3F",
"FX c #EC4B4B",
"GX c #F15858",
"HX c #F45959",
/* pixels */
"                                                                                                                                ",
"                                                                                                                                ",
"                                                                                                                                ",
"                                                                                                                                ",
"                                                                                                                                ",
"                                                                                                                                ",
"                                                                                                                                ",
"                          FXGX                                                                    GXFX                          ",
"                        fXSXDXxX                                                                xXDXSXfX                        ",
"                      sXAX).T.BXcX                                                            cXBXT.).AXsX                      ",
"                    aXZX{.Z.R.(.VXzX                                                        zXVX(.R.Z.{.ZXaX                    ",
"                  iXZX'.C.!.!.F./.NXlX                                                    lXNX/.F.!.!.C.'.ZXaX                  ",
"                hXCX`.V.Q.Q.Q.Q.G./.MXkX                                                kXMX/.G.Q.Q.Q.Q.V.`.ZXhX                ",
"              -XmX[.B.W.W.W.W.W.W.A.^.mXkX                                            kXmX^.A.W.W.W.W.W.W.B.].mX-X              ",
"              G w.G.W.U.U.U.U.U.U.U.S.~.mXjX                                        jXmX~.S.U.U.U.U.U.U.U.W.G.u.G               ",
"                d 6.!.U.I.I.I.I.I.I.I.m.~.nXgX                                    gXnX~.m.I.I.I.I.I.I.I.U.!.6.d                 ",
"                  l 7.U.I.P.P.P.P.P.P.P.v.E.nXdX                                dXnXE.v.P.P.P.P.P.P.P.I.U.7.l                   ",
"                    j 4.I.P.K.K.K.K.K.K.K.v.H.bXpX                            pXvXH.v.K.K.K.K.K.K.K.P.I.4.j                     ",
"                      f 3.P.L.J.J.J.J.J.J.K.k.I.rXpX                        pXrXI.k.K.J.J.J.J.J.J.L.P.3.f                       ",
"                        j 1.D.N.M.M.M.M.M.M.M.s.P.rXuX                    uXrXP.s.M.M.M.M.M.M.M.N.D.1.j                         ",
"                          g ,.N.M.b.b.b.b.b.b.b.s.L.rXyX                yXrXL.s.b.b.b.b.b.b.b.M.N.,.g                           ",
"                            h >.M.b.z.z.z.z.z.z.z.t.K.eXyX            yXeXK.t.z.z.z.z.z.z.z.b.M.>.h                             ",
"                              i :.n.z.l.l.l.l.l.l.l.a.c.eXtX        tXeXc.a.l.l.l.l.l.l.l.z.n.:.i                               ",
"                                p =.b.l.h.h.h.h.h.h.h.r.z.wXtX    tXwXz.r.h.h.h.h.h.h.h.l.b.=.p                                 ",
"                                  u *.z.h.g.g.g.g.g.g.g.e.j.qXHXHXqXj.e.g.g.g.g.g.g.g.h.z.*.u                                   ",
"                                    y $.f.d.p.p.p.p.p.p.p.q.a.;X;Xa.q.p.p.p.p.p.p.p.d.f.$.y                                     ",
"                                      0 #.d.p.u.u.u.u.u.u.u.e.O.O.e.u.u.u.u.u.u.u.p.d.#.0                                       ",
"                                        w { p.i.y.y.y.y.y.y.y.y.y.y.y.y.y.y.y.y.i.p.} w                                         ",
"                                          9 [ i.y.0.0.0.0.0.0.0.0.0.0.0.0.0.0.y.i.[ 9                                           ",
"                                            q ` y.0.9.9.9.9.9.9.9.9.9.9.9.9.0.y.` q                                             ",
"                                              8 ) 0.8.8.8.8.8.8.8.8.8.8.8.8.0.) 8                                               ",
"                                                Z 6.7.7.7.7.7.7.7.7.7.7.7.7.6.Z                                                 ",
"                                                Y.x.3.5.5.5.5.5.5.5.5.5.5.3.x.Y.                                                ",
"                                              *X7X7.<.4.4.4.4.4.4.4.4.4.4.<.7.7X*X                                              ",
"                                            %X0X6.o.2.2.2.2.2.2.2.2.2.2.2.2.o.6.0X%X                                            ",
"                                          &X8X5.X.<.<.<.<.<.<.<.<.<.<.<.<.<.<.X.5.8X&X                                          ",
"                                        $X9X3...,.,.,.,.,.,.,.,.,.,.,.,.,.,.,.,...3.9X$X                                        ",
"                                      #X6X<. .>.:.:.:.:.:.:.>.,.,.>.:.:.:.:.:.:.>. .<.6X#X                                      ",
"                                    @X5X,.^ =.=.=.=.=.=.=.:.:.+.+.:.:.=.=.=.=.=.=.=.^ ,.5X@X                                    ",
"                                  +X4X>.~ %.%.%.%.%.%.%.&.;.S 7 7 S ;.&.%.%.%.%.%.%.%.~ >.4X+X                                  ",
"                                OX3X-.! @.@.@.@.@.@.@.%.-.D 5     5 D -.%.@.@.@.@.@.@.@.! -.3XOX                                ",
"                              oX2X@.Q +.+.+.+.+.+.+.@.%.S 6         6 S %.@.+.+.+.+.+.+.+.Q @.2XoX                              ",
"                            oX2X*.R { { { { { { { +.@.C 4             4 C @.+.{ { { { { { { R *.2XoX                            ",
"                          XX1X{ U ` ` ` ` ` ` ` { +.V 3                 3 V +.{ ` ` ` ` ` ` ` U { 1XXX                          ",
"                        XX<X] Y _ _ _ _ _ _ _ [ { B 2                     2 B { [ _ _ _ _ _ _ _ Y ] <XXX                        ",
"                      .X<X_ L ) ) ) ) ) ) ) _ [ N 1                         1 N [ _ ) ) ) ) ) ) ) L _ <X.X                      ",
"                    |.,X) K ) ( ( ( ( ( ( _ ` M >                             > M ` _ ( ( ( ( ( ( ) K ) ,X|.                    ",
"                  }.>X( G / / / / / / / ( _ M <                                 < M _ ( / / / / / / / G ( >X}.                  ",
"                 X:X/ F Y Y Y Y Y Y Y T W m :                                     : m W T Y Y Y Y Y Y Y F / :X X                ",
"              | _.' A I I I I I I I Y E n ,                                         , n E Y I I I I I I I A ' =X|               ",
"              ; e J Y P P P P P P I T b =                                             = b T I P P P P P P Y J e -               ",
"                O f J P J J J J P Y v *                                                 * v Y P J J J J P P f +                 ",
"                  $ a J J H H J I x *                                                     * x I J H H J J a #                   ",
"                    # s H H H P c &                                                         & c P H H H s @                     ",
"                      + t H P z %                                                             % z P H t +                       ",
"                        + r k &                                                                 & k r +                         ",
"                          X o                                                                     X .                           ",
"                                                                                                                                ",
"                                                                                                                                ",
"                                                                                                                                ",
"                                                                                                                                ",
"                                                                                                                                ",
"                                                                                                                                ",
"                                                                                                                                "
};
